<svg width="380" height="550" viewBox="0 0 380 550" fill="none" xmlns="http://www.w3.org/2000/svg">
<path d="M77.233 359.628L79.3531 347.354C84.2115 319.227 90.3004 297.194 97.6199 281.254C104.939 265.314 113.816 253.066 124.251 244.511C134.715 235.785 146.963 228.421 160.996 222.418C173.147 217.144 184.06 211.919 193.735 206.744C203.581 201.598 211.624 195.702 217.865 189.055C224.277 182.438 228.307 174.357 229.956 164.811C231.428 156.287 230.677 148.433 227.703 141.249C224.729 134.064 220.056 128.078 213.682 123.29C207.308 118.503 199.858 115.372 191.332 113.9C182.123 112.309 173.228 112.967 164.647 115.874C156.237 118.81 148.997 123.616 142.926 130.292C137.026 136.997 133.222 145.293 131.515 155.18L0.544506 132.558C7.36346 95.1136 21.1461 66.158 41.8924 45.6907C62.6681 25.0529 87.8115 11.665 117.322 5.52705C146.863 -0.781384 178.175 -1.07832 211.259 4.63623C247.753 10.9399 279.397 21.9358 306.192 37.624C333.016 53.1416 352.844 73.0685 365.676 97.4047C378.537 121.57 382.2 149.677 376.664 181.725C373.101 202.352 366.384 219.888 356.513 234.334C346.841 248.638 334.665 260.667 319.985 270.42C305.504 280.032 289.068 288.253 270.678 295.083C257.162 300.122 245.564 305.755 235.883 311.983C226.231 318.04 218.435 325.559 212.493 334.539C206.581 343.349 202.447 354.572 200.091 368.21L197.971 380.483L77.233 359.628ZM109.968 542.24C90.186 538.823 74.4104 528.989 62.6411 512.736C51.0718 496.342 47.095 478.188 50.7105 458.272C53.8967 438.81 63.6743 423.382 80.0431 411.99C96.5825 400.627 114.743 396.654 134.525 400.071C153.284 403.311 168.633 413.072 180.573 429.354C192.683 445.666 197.145 463.553 193.959 483.016C191.492 496.283 185.905 507.782 177.2 517.514C168.694 527.104 158.509 534.211 146.647 538.833C134.814 543.284 122.587 544.42 109.968 542.24Z" fill="#B1B1B1" fill-opacity="0.05"/>
</svg>